HIERARCHY
ROOT Hips
{
  OFFSET 5.84602e-005 68.8428 3.50346
  CHANNELS 6 Xposition Yposition Zposition Zrotation Xrotation Yrotation
  JOINT Spine
  {
    OFFSET 0 8.597 -4.6522
    CHANNELS 3 Zrotation Xrotation Yrotation
    JOINT Spine1
    {
      OFFSET 0 7.8454 0.4098
      CHANNELS 3 Zrotation Xrotation Yrotation
      JOINT Spine2
      {
        OFFSET 0 9.7078 -2.1609
        CHANNELS 3 Zrotation Xrotation Yrotation
        JOINT Neck
        {
          OFFSET 0 21.8761 -0.4549
          CHANNELS 3 Zrotation Xrotation Yrotation
          JOINT Head
          {
            OFFSET 0 12.3537 3.3602
            CHANNELS 3 Zrotation Xrotation Yrotation
            End Site
            {
              OFFSET 0.0001 18.9506 0.5657
            }
          }
        }
        JOINT LeftShoulder
        {
          OFFSET 2.2086 21.1115 7.2329
          CHANNELS 3 Zrotation Xrotation Yrotation
          JOINT LeftArm
          {
            OFFSET 13.1193 3.0282 -4.8998
            CHANNELS 3 Zrotation Xrotation Yrotation
            JOINT LeftForeArm
            {
              OFFSET 27.4081 -0.0973053 -0.2375
              CHANNELS 3 Zrotation Xrotation Yrotation
              JOINT LeftHand
              {
                OFFSET 22.8641 0.0662994 -0.1369
                CHANNELS 3 Zrotation Xrotation Yrotation
                JOINT LeftHandIndex1
                {
                  OFFSET 8.8614 0.775009 2.4612
                  CHANNELS 3 Zrotation Xrotation Yrotation
                  JOINT LeftHandIndex2
                  {
                    OFFSET 3.3146 -0.808304 0.5841
                    CHANNELS 3 Zrotation Xrotation Yrotation
                    JOINT LeftHandIndex3
                    {
                      OFFSET 2.2628 -0.552002 0.3989
                      CHANNELS 3 Zrotation Xrotation Yrotation
                      End Site
                      {
                        OFFSET 1.6102 -0.4807 0.2612
                      }
                    }
                  }
                }
                JOINT LeftHandMiddle1
                {
                  OFFSET 8.9937 0.895004 0.2143
                  CHANNELS 3 Zrotation Xrotation Yrotation
                  JOINT LeftHandMiddle2
                  {
                    OFFSET 4.0984 0.0113983 -0.0242
                    CHANNELS 3 Zrotation Xrotation Yrotation
                    JOINT LeftHandMiddle3
                    {
                      OFFSET 2.2716 0.00689697 -0.0138001
                      CHANNELS 3 Zrotation Xrotation Yrotation
                      End Site
                      {
                        OFFSET 2.0404 -0.1441 0.0027
                      }
                    }
                  }
                }
                JOINT LeftHandRing1
                {
                  OFFSET 8.5234 0.597198 -2.0164
                  CHANNELS 3 Zrotation Xrotation Yrotation
                  JOINT LeftHandRing2
                  {
                    OFFSET 3.7188 -0.188293 -0.2328
                    CHANNELS 3 Zrotation Xrotation Yrotation
                    JOINT LeftHandRing3
                    {
                      OFFSET 2.1191 -0.106598 -0.1332
                      CHANNELS 3 Zrotation Xrotation Yrotation
                      End Site
                      {
                        OFFSET 1.8737 -0.2304 -0.0886
                      }
                    }
                  }
                }
                JOINT LeftHandPinky1
                {
                  OFFSET 7.9094 -0.601089 -3.4825
                  CHANNELS 3 Zrotation Xrotation Yrotation
                  JOINT LeftHandPinky2
                  {
                    OFFSET 2.2874 -0.477005 -0.6314
                    CHANNELS 3 Zrotation Xrotation Yrotation
                    JOINT LeftHandPinky3
                    {
                      OFFSET 1.6774 -0.349396 -0.4633
                      CHANNELS 3 Zrotation Xrotation Yrotation
                      End Site
                      {
                        OFFSET 1.4888 -0.4091 -0.3416
                      }
                    }
                  }
                }
                JOINT LeftHandThumb1
                {
                  OFFSET 1.833 -1.3875 1.3896
                  CHANNELS 3 Zrotation Xrotation Yrotation
                  JOINT LeftHandThumb2
                  {
                    OFFSET 3.4129 -1.121 2.5732
                    CHANNELS 3 Zrotation Xrotation Yrotation
                    JOINT LeftHandThumb3
                    {
                      OFFSET 2.2474 -0.804199 1.6192
                      CHANNELS 3 Zrotation Xrotation Yrotation
                      End Site
                      {
                        OFFSET 1.6527 -0.5689 1.1317
                      }
                    }
                  }
                }
              }
            }
          }
        }
        JOINT RightShoulder
        {
          OFFSET -2.2086 21.1115 7.2329
          CHANNELS 3 Zrotation Xrotation Yrotation
          JOINT RightArm
          {
            OFFSET -13.1216 3.0287 -4.9007
            CHANNELS 3 Zrotation Xrotation Yrotation
            JOINT RightForeArm
            {
              OFFSET -27.4081 -0.0973053 -0.2375
              CHANNELS 3 Zrotation Xrotation Yrotation
              JOINT RightHand
              {
                OFFSET -22.8641 0.0664063 -0.1369
                CHANNELS 3 Zrotation Xrotation Yrotation
                JOINT RightHandIndex1
                {
                  OFFSET -8.8614 0.774994 2.4612
                  CHANNELS 3 Zrotation Xrotation Yrotation
                  JOINT RightHandIndex2
                  {
                    OFFSET -3.3146 -0.808304 0.5841
                    CHANNELS 3 Zrotation Xrotation Yrotation
                    JOINT RightHandIndex3
                    {
                      OFFSET -2.2628 -0.552002 0.3989
                      CHANNELS 3 Zrotation Xrotation Yrotation
                      End Site
                      {
                        OFFSET -1.6102 -0.4807 0.2612
                      }
                    }
                  }
                }
                JOINT RightHandMiddle1
                {
                  OFFSET -8.9937 0.894989 0.2143
                  CHANNELS 3 Zrotation Xrotation Yrotation
                  JOINT RightHandMiddle2
                  {
                    OFFSET -4.0984 0.0113983 -0.0242
                    CHANNELS 3 Zrotation Xrotation Yrotation
                    JOINT RightHandMiddle3
                    {
                      OFFSET -2.2716 0.00691223 -0.0138001
                      CHANNELS 3 Zrotation Xrotation Yrotation
                      End Site
                      {
                        OFFSET -2.0404 -0.1441 0.0027
                      }
                    }
                  }
                }
                JOINT RightHandRing1
                {
                  OFFSET -8.5234 0.597198 -2.0164
                  CHANNELS 3 Zrotation Xrotation Yrotation
                  JOINT RightHandRing2
                  {
                    OFFSET -3.7188 -0.188309 -0.2328
                    CHANNELS 3 Zrotation Xrotation Yrotation
                    JOINT RightHandRing3
                    {
                      OFFSET -2.1191 -0.106598 -0.1332
                      CHANNELS 3 Zrotation Xrotation Yrotation
                      End Site
                      {
                        OFFSET -1.8737 -0.2304 -0.0886
                      }
                    }
                  }
                }
                JOINT RightHandPinky1
                {
                  OFFSET -7.9094 -0.601105 -3.4825
                  CHANNELS 3 Zrotation Xrotation Yrotation
                  JOINT RightHandPinky2
                  {
                    OFFSET -2.2874 -0.477005 -0.6314
                    CHANNELS 3 Zrotation Xrotation Yrotation
                    JOINT RightHandPinky3
                    {
                      OFFSET -1.6774 -0.349396 -0.4633
                      CHANNELS 3 Zrotation Xrotation Yrotation
                      End Site
                      {
                        OFFSET -1.4888 -0.4091 -0.3416
                      }
                    }
                  }
                }
                JOINT RightHandThumb1
                {
                  OFFSET -1.833 -1.38751 1.3896
                  CHANNELS 3 Zrotation Xrotation Yrotation
                  JOINT RightHandThumb2
                  {
                    OFFSET -3.41299 -1.12099 2.5732
                    CHANNELS 3 Zrotation Xrotation Yrotation
                    JOINT RightHandThumb3
                    {
                      OFFSET -2.24741 -0.804108 1.6192
                      CHANNELS 3 Zrotation Xrotation Yrotation
                      End Site
                      {
                        OFFSET -1.6527 -0.5689 1.1317
                      }
                    }
                  }
                }
              }
            }
          }
        }
      }
    }
  }
  JOINT RightUpLeg
  {
    OFFSET -9.1966 3.8861 -0.7581
    CHANNELS 3 Zrotation Xrotation Yrotation
    JOINT RightLeg
    {
      OFFSET -0.7359 -41.0265 0
      CHANNELS 3 Zrotation Xrotation Yrotation
      JOINT RightFoot
      {
        OFFSET 0 -40.2855 0
        CHANNELS 3 Zrotation Xrotation Yrotation
        JOINT RightToeBase
        {
          OFFSET 0 -5.6122 11.7359
          CHANNELS 3 Zrotation Xrotation Yrotation
          End Site
          {
            OFFSET 0 0 7.8731
          }
        }
      }
    }
  }
  JOINT LeftUpLeg
  {
    OFFSET 9.1965 3.8864 -0.7581
    CHANNELS 3 Zrotation Xrotation Yrotation
    JOINT LeftLeg
    {
      OFFSET 0.7359 -41.0268 0
      CHANNELS 3 Zrotation Xrotation Yrotation
      JOINT LeftFoot
      {
        OFFSET 0 -40.2855 0
        CHANNELS 3 Zrotation Xrotation Yrotation
        JOINT LeftToeBase
        {
          OFFSET 0 -5.6122 11.7359
          CHANNELS 3 Zrotation Xrotation Yrotation
          End Site
          {
            OFFSET 0 0 7.8731
          }
        }
      }
    }
  }
}
MOTION
Frames:	4
Frame Time:	0.0333333
1.01889 19.8324 -5.36809 -6.64862e-015 3.00291 180 -0.489994 -7.96698 -0.467266 -1.06197 -15.9293 -1.01911 -1.06197 -15.9293 -1.01911 -10.5683 -16.7201 -2.98509 1.52029e-007 8.78776 -2.39801e-008 2.99337 4.23793 24.3537 23.9584 -63.4388 82.7111 -5.31214 73.9953 2.03494 59.604 15.8318 3.1681 1.44073e-006 -2.46962e-006 -2.49073e-006 2.63112e-006 -2.43692e-006 -4.28745e-007 -6.35729e-007 -1.55396e-006 -2.93035e-007 1.44073e-006 -2.46962e-006 -2.49073e-006 -0.014608 -9.24311e-005 -2.56446e-006 -1.31894e-006 -1.66274e-006 1.72671e-006 1.44073e-006 -2.46962e-006 -2.49073e-006 -0.0187625 -0.00117922 5.83344e-005 -6.35715e-007 -1.55391e-006 -2.93283e-007 1.44073e-006 -2.46962e-006 -2.49073e-006 -0.0122308 -0.00324198 0.000671643 -6.35735e-007 -1.55392e-006 -2.93184e-007 1.44073e-006 -2.46962e-006 -2.49073e-006 2.63112e-006 -2.43692e-006 -4.28745e-007 -6.35729e-007 -1.55396e-006 -2.93035e-007 -5.53004 3.68856 -23.6972 -24.0384 -62.4926 -84.9526 5.12912 74.072 -2.04768 -62.0033 17.9201 -1.591 -1.53257e-006 -7.0623e-007 1.05573e-007 -1.35601e-006 -1.08937e-006 1.65278e-007 -1.53257e-006 -7.0623e-007 1.05573e-007 -1.53257e-006 -7.0623e-007 1.05573e-007 0.0150044 -9.26275e-005 3.87808e-006 -1.53254e-006 -7.06217e-007 1.05666e-007 -1.53257e-006 -7.0623e-007 1.05573e-007 0.0190114 -0.00119351 -5.9602e-005 -1.29421e-006 -1.01367e-006 -2.49279e-006 -1.53257e-006 -7.0623e-007 1.05573e-007 0.0122566 -0.00324537 -0.00067583 -1.53254e-006 -7.06235e-007 1.0569e-007 -1.53257e-006 -7.0623e-007 1.05573e-007 -1.35601e-006 -1.08937e-006 1.65278e-007 -1.53257e-006 -7.0623e-007 1.05573e-007 -34.1542 -13.3411 46.542 120.257 41.9693 -152.717 -18.1569 41.1144 61.5419 3.18055e-015 -9.54166e-015 -6.36111e-015 36.1843 -13.5581 -47.2282 -118.164 42.5547 151.222 21.3254 41.8454 -64.9644 7.19137e-006 -6.22722e-007 1.04042e-007 
1.01911 19.4903 -5.12867 -6.71408e-015 2.46959 180 -0.489972 -7.82482 -0.465653 -1.05988 -15.645 -1.01398 -1.05988 -15.645 -1.01398 -10.5449 -16.7255 -2.979 2.54387e-006 8.76378 -1.04748e-006 3.25724 3.64669 24.2163 23.9654 -63.3749 82.8913 -5.29186 74.0145 2.03788 59.4888 15.6347 2.76794 -1.58021e-007 -3.89136e-007 -7.21121e-008 -4.74064e-007 -1.16741e-006 -2.16336e-007 -1.58021e-007 -3.89136e-007 -7.21121e-008 -1.58021e-007 -3.89136e-007 -7.21121e-008 -0.0146235 -8.90654e-005 6.98751e-006 -7.96394e-007 -4.72631e-007 1.91486e-006 -1.58021e-007 -3.89136e-007 -7.21121e-008 -0.0187407 -0.00117484 5.03278e-005 -1.58018e-007 -3.89123e-007 -7.21742e-008 -1.58021e-007 -3.89136e-007 -7.21121e-008 -0.012255 -0.00324229 0.000674304 -1.58023e-007 -3.89126e-007 -7.21494e-008 -1.58021e-007 -3.89136e-007 -7.21121e-008 -4.74064e-007 -1.16741e-006 -2.16336e-007 -1.58021e-007 -3.89136e-007 -7.21121e-008 -5.66925 3.11004 -23.6002 -24.0382 -62.4942 -84.9486 5.11937 74.091 -2.05046 -61.7982 17.6304 -1.27054 -5.30898e-006 -5.70926e-007 7.73164e-008 -5.48452e-006 -1.87026e-007 1.92484e-008 -4.65109e-006 2.05075e-006 -3.1622e-007 -5.30898e-006 -5.70926e-007 7.73164e-008 0.0149864 -9.20848e-005 5.12558e-006 -5.19461e-006 2.63306e-006 3.0042e-006 -5.30898e-006 -5.70926e-007 7.73164e-008 0.0189801 -0.0011919 -6.15299e-005 -5.19424e-006 2.63307e-006 3.00415e-006 -5.30898e-006 -5.70926e-007 7.73164e-008 0.0122363 -0.00324246 -0.000673744 -5.19478e-006 2.63269e-006 3.00435e-006 -5.30898e-006 -5.70926e-007 7.73164e-008 -5.48452e-006 -1.87026e-007 1.92484e-008 -4.65109e-006 2.05075e-006 -3.1622e-007 -34.4722 -14.0175 46.2972 120.955 41.8177 -153.188 -18.0857 40.8572 61.8107 -9.27539e-006 -1.08144e-006 -2.57501e-007 36.5061 -14.2357 -46.978 -118.864 42.4181 151.697 21.2542 41.5989 -65.2304 5.69459e-006 -2.11967e-006 -4.63771e-006 
1.0194 19.0636 -4.8289 -6.79583e-015 1.80302 180 -0.489956 -7.64715 -0.463642 -1.05732 -15.2896 -1.0076 -1.05732 -15.2896 -1.0076 -10.5217 -16.7314 -2.9729 1.93272e-006 8.73977 -3.4934e-007 3.58462 2.90626 24.0484 23.9733 -63.2949 83.1158 -5.26614 74.0383 2.04143 59.3425 15.3889 2.26784 1.71662e-006 -2.37458e-007 -2.54359e-008 2.96916e-006 1.4925e-006 -5.51319e-006 2.10535e-006 3.79095e-007 -5.0899e-006 1.71662e-006 -2.37458e-007 -2.54359e-008 -0.0146045 -8.73425e-005 -3.05489e-006 1.52416e-006 3.28492e-007 -3.14494e-006 1.71662e-006 -2.37458e-007 -2.54359e-008 -0.0187421 -0.00117493 5.61629e-005 1.52407e-006 3.2859e-007 -3.14494e-006 1.71662e-006 -2.37458e-007 -2.54359e-008 -0.0122625 -0.00324562 0.000674374 1.52411e-006 3.28376e-007 -3.14498e-006 1.71662e-006 -2.37458e-007 -2.54359e-008 2.96916e-006 1.4925e-006 -5.51319e-006 2.10535e-006 3.79095e-007 -5.0899e-006 -5.84157 2.38615 -23.4813 -24.0382 -62.4957 -84.9446 5.10717 74.1148 -2.05404 -61.5392 17.2692 -0.869542 1.71362e-006 3.12099e-007 -4.41043e-008 1.88785e-006 -7.27466e-008 1.1944e-008 1.71362e-006 3.12099e-007 -4.41043e-008 1.71362e-006 3.12099e-007 -4.41043e-008 0.0149932 -9.11382e-005 -2.5494e-006 1.40527e-006 1.43732e-007 -6.14152e-007 1.71362e-006 3.12099e-007 -4.41043e-008 0.0189736 -0.00119006 -6.51404e-005 1.71357e-006 3.12095e-007 -4.41736e-008 1.71362e-006 3.12099e-007 -4.41043e-008 0.012235 -0.00323647 -0.000669092 1.71359e-006 3.12111e-007 -4.41846e-008 1.71362e-006 3.12099e-007 -4.41043e-008 1.88785e-006 -7.27466e-008 1.1944e-008 1.71362e-006 3.12099e-007 -4.41043e-008 -34.8747 -14.8641 45.9875 121.825 41.6228 -153.774 -17.9939 40.5353 62.1447 -5.38876e-006 1.43242e-007 2.0186e-006 36.9135 -15.0837 -46.6614 -119.735 42.242 152.287 21.1626 41.2906 -65.5608 3.84392e-006 -3.20965e-006 -1.0683e-006 
1.01966 18.6804 -4.55866 -6.86934e-015 1.20316 180 -0.489943 -7.48715 -0.461829 -1.05506 -14.9697 -1.00188 -1.05506 -14.9697 -1.00188 -10.4984 -16.7366 -2.96679 -1.63962e-006 8.71578 -2.44804e-006 3.87755 2.23878 23.9009 23.9798 -63.2228 83.3173 -5.2429 74.0594 2.04471 59.2092 15.1689 1.81745 -1.09537e-006 1.79507e-006 3.0017e-007 -7.83844e-007 2.5764e-006 4.3903e-007 6.23062e-007 1.56267e-006 2.77718e-007 -1.09537e-006 1.79507e-006 3.0017e-007 -0.0146217 -8.74264e-005 4.26674e-006 6.2305e-007 1.56264e-006 2.77917e-007 -1.09537e-006 1.79507e-006 3.0017e-007 -0.0188108 -0.0011781 5.94032e-005 6.2305e-007 1.56262e-006 2.77968e-007 -1.09537e-006 1.79507e-006 3.0017e-007 -0.0122655 -0.00324724 0.00068676 6.23069e-007 1.56264e-006 2.77869e-007 -1.09537e-006 1.79507e-006 3.0017e-007 -7.83844e-007 2.5764e-006 4.3903e-007 6.23062e-007 1.56267e-006 2.77718e-007 -5.99549 1.73411 -23.3761 -24.038 -62.4973 -84.9406 5.09612 74.1361 -2.05731 -61.3045 16.9458 -0.507524 -3.47339e-006 -3.47398e-007 2.54835e-006 -3.73875e-006 -1.64587e-006 5.55028e-007 1.05976e-006 -1.4945e-006 3.35681e-006 -3.47339e-006 -3.47398e-007 2.54835e-006 0.0149938 -9.23813e-005 1.4429e-007 1.05993e-006 -1.49406e-006 3.35701e-006 -3.47339e-006 -3.47398e-007 2.54835e-006 0.0190319 -0.00119494 -6.1546e-005 1.06e-006 -1.49396e-006 3.35705e-006 -3.47339e-006 -3.47398e-007 2.54835e-006 0.0122826 -0.00325342 -0.000679404 1.06e-006 -1.49417e-006 3.35694e-006 -3.47339e-006 -3.47398e-007 2.54835e-006 -3.73875e-006 -1.64587e-006 5.55028e-007 1.05976e-006 -1.4945e-006 3.35681e-006 -35.2415 -15.6243 45.6993 122.603 41.442 -154.298 -17.9094 40.2459 62.4442 3.48886e-007 2.80321e-007 7.24399e-007 37.285 -15.8451 -46.3672 -120.516 42.078 152.816 21.0781 41.0134 -65.857 -3.48886e-007 2.8037e-007 -7.24394e-007 
